<svg width="100%" viewBox="0 0 680 200" xmlns="http://www.w3.org/2000/svg">
<style>
.bg { fill: #0d1117; }
.tbl { fill: #161b22; stroke: #30363d; }
.tbl-head { fill: #1f2937; }
.tbl-row { fill: #30363d; opacity: 0.5; }
.arrow { stroke: #58a6ff; }
.dot-add { fill: #3fb950; }
.dot-rem { fill: #f85149; }
.dot-mod { fill: #d29922; }
.brand { fill: #f0f6fc; }
.sub { fill: #8b949e; }
</style>

<rect width="680" height="200" rx="16" class="bg"/>

<g transform="translate(32, 30)">
  <rect width="100" height="80" rx="6" class="tbl" stroke-width="1"/>
  <rect width="100" height="20" rx="6" class="tbl-head"/>
  <rect y="14" width="100" height="6" class="tbl-head"/>
  <text x="50" y="14" text-anchor="middle" font-family="monospace" font-size="9" fill="#58a6ff" font-weight="700">users</text>
  <rect x="8" y="28" width="45" height="5" rx="2" class="tbl-row"/>
  <rect x="8" y="38" width="70" height="5" rx="2" class="tbl-row"/>
  <rect x="8" y="48" width="55" height="5" rx="2" class="tbl-row"/>
  <rect x="8" y="58" width="40" height="5" rx="2" class="tbl-row"/>
  <rect x="8" y="68" width="62" height="5" rx="2" fill="#3fb950" opacity="0.6"/>
</g>

<g transform="translate(152, 30)">
  <rect width="100" height="80" rx="6" class="tbl" stroke-width="1"/>
  <rect width="100" height="20" rx="6" class="tbl-head"/>
  <rect y="14" width="100" height="6" class="tbl-head"/>
  <text x="50" y="14" text-anchor="middle" font-family="monospace" font-size="9" fill="#58a6ff" font-weight="700">posts</text>
  <rect x="8" y="28" width="45" height="5" rx="2" class="tbl-row"/>
  <rect x="8" y="38" width="80" height="5" rx="2" class="tbl-row"/>
  <rect x="8" y="48" width="55" height="5" rx="2" fill="#d29922" opacity="0.6"/>
  <rect x="8" y="58" width="65" height="5" rx="2" class="tbl-row"/>
  <rect x="8" y="68" width="40" height="5" rx="2" class="tbl-row"/>
</g>

<g transform="translate(272, 30)">
  <rect width="100" height="80" rx="6" class="tbl" stroke-width="1"/>
  <rect width="100" height="20" rx="6" class="tbl-head"/>
  <rect y="14" width="100" height="6" class="tbl-head"/>
  <text x="50" y="14" text-anchor="middle" font-family="monospace" font-size="9" fill="#58a6ff" font-weight="700">orders</text>
  <rect x="8" y="28" width="45" height="5" rx="2" class="tbl-row"/>
  <rect x="8" y="38" width="70" height="5" rx="2" class="tbl-row"/>
  <rect x="8" y="48" width="55" height="5" rx="2" class="tbl-row"/>
  <rect x="8" y="58" width="75" height="5" rx="2" fill="#f85149" opacity="0.6"/>
  <rect x="8" y="68" width="40" height="5" rx="2" class="tbl-row"/>
</g>

<line x1="132" y1="70" x2="152" y2="70" stroke-width="1" stroke-dasharray="3 3" stroke="#58a6ff" opacity="0.5"/>
<line x1="252" y1="70" x2="272" y2="70" stroke-width="1" stroke-dasharray="3 3" stroke="#58a6ff" opacity="0.5"/>

<line x1="32" y1="155" x2="372" y2="155" stroke-width="1" stroke="#30363d"/>
<circle cx="82"  cy="155" r="5" class="dot-add"/>
<circle cx="162" cy="155" r="5" class="dot-mod"/>
<circle cx="242" cy="155" r="5" class="dot-add"/>
<circle cx="322" cy="155" r="5" class="dot-rem"/>

<line x1="32"  y1="150" x2="32"  y2="160" stroke-width="1" stroke="#30363d"/>
<line x1="372" y1="150" x2="372" y2="160" stroke-width="1" stroke="#30363d"/>

<text x="82"  y="175" text-anchor="middle" font-family="monospace" font-size="8" class="sub">+col</text>
<text x="162" y="175" text-anchor="middle" font-family="monospace" font-size="8" class="sub">~type</text>
<text x="242" y="175" text-anchor="middle" font-family="monospace" font-size="8" class="sub">+col</text>
<text x="322" y="175" text-anchor="middle" font-family="monospace" font-size="8" class="sub">-col</text>

<text x="430" y="85" font-family="monospace" font-size="32" font-weight="700" class="brand">schema</text>
<text x="430" y="118" font-family="monospace" font-size="32" font-weight="700" fill="#58a6ff">-drift</text>
<text x="431" y="145" font-family="monospace" font-size="11" class="sub">track why your schema changed</text>
</svg>
